# Blender 3.6.5
# www.blender.org
o Plane
v -60.000000 0.000000 60.000000
v 60.000000 0.000000 60.000000
v -60.000000 0.000000 -60.000000
v 60.000000 0.000000 -60.000000
v -60.000000 0.000000 -40.000000
v -60.000000 0.000000 -20.000000
v -60.000000 0.000000 0.000000
v -60.000000 0.000000 20.000000
v -60.000000 0.000000 40.000000
v -40.000000 0.000000 60.000000
v -20.000000 0.000000 60.000000
v 0.000000 0.000000 60.000000
v 20.000000 0.000000 60.000000
v 40.000000 0.000000 60.000000
v 60.000000 0.000000 40.000000
v 60.000000 0.000000 20.000000
v 60.000000 0.000000 0.000000
v 60.000000 0.000000 -20.000000
v 60.000000 0.000000 -40.000000
v 40.000000 0.000000 -60.000000
v 20.000000 0.000000 -60.000000
v 0.000000 0.000000 -60.000000
v -20.000000 0.000000 -60.000000
v -40.000000 0.000000 -60.000000
v -40.000000 0.000000 40.000000
v -40.000000 0.000000 20.000000
v -40.000000 0.000000 0.000000
v -40.000000 0.000000 -20.000000
v -40.000000 0.000000 -40.000000
v -20.000000 0.000000 40.000000
v -20.000000 0.000000 20.000000
v -20.000000 0.000000 0.000000
v -20.000000 0.000000 -20.000000
v -20.000000 0.000000 -40.000000
v 0.000000 0.000000 40.000000
v 0.000000 0.000000 20.000000
v 0.000000 0.000000 0.000000
v 0.000000 0.000000 -20.000000
v 0.000000 0.000000 -40.000000
v 20.000000 0.000000 40.000000
v 20.000000 0.000000 20.000000
v 20.000000 0.000000 0.000000
v 20.000000 0.000000 -20.000000
v 20.000000 0.000000 -40.000000
v 40.000000 0.000000 40.000000
v 40.000000 0.000000 20.000000
v 40.000000 0.000000 0.000000
v 40.000000 0.000000 -20.000000
v 40.000000 0.000000 -40.000000
vn -0.0000 1.0000 -0.0000
vt 0.833333 0.833333
vt 1.000000 1.000000
vt 0.833333 1.000000
vt 0.166667 0.833333
vt 0.000000 1.000000
vt 0.000000 0.833333
vt 0.333333 0.833333
vt 0.166667 1.000000
vt 0.500000 0.833333
vt 0.333333 1.000000
vt 0.666667 0.833333
vt 0.500000 1.000000
vt 0.666667 1.000000
vt 0.166667 0.000000
vt 0.000000 0.166667
vt 0.000000 0.000000
vt 0.166667 0.166667
vt 0.000000 0.333333
vt 0.166667 0.333333
vt 0.000000 0.500000
vt 0.166667 0.500000
vt 0.000000 0.666667
vt 0.166667 0.666667
vt 0.333333 0.000000
vt 0.333333 0.166667
vt 0.333333 0.333333
vt 0.333333 0.500000
vt 0.333333 0.666667
vt 0.500000 0.000000
vt 0.500000 0.166667
vt 0.500000 0.333333
vt 0.500000 0.500000
vt 0.500000 0.666667
vt 0.666667 0.000000
vt 0.666667 0.166667
vt 0.666667 0.333333
vt 0.666667 0.500000
vt 0.666667 0.666667
vt 0.833333 0.000000
vt 0.833333 0.166667
vt 0.833333 0.333333
vt 0.833333 0.500000
vt 0.833333 0.666667
vt 1.000000 0.000000
vt 1.000000 0.166667
vt 1.000000 0.333333
vt 1.000000 0.500000
vt 1.000000 0.666667
vt 1.000000 0.833333
s 0
f 49/1/1 4/2/1 20/3/1
f 29/4/1 3/5/1 5/6/1
f 34/7/1 24/8/1 29/4/1
f 39/9/1 23/10/1 34/7/1
f 44/11/1 22/12/1 39/9/1
f 49/1/1 21/13/1 44/11/1
f 10/14/1 9/15/1 1/16/1
f 25/17/1 8/18/1 9/15/1
f 26/19/1 7/20/1 8/18/1
f 27/21/1 6/22/1 7/20/1
f 28/23/1 5/6/1 6/22/1
f 11/24/1 25/17/1 10/14/1
f 30/25/1 26/19/1 25/17/1
f 31/26/1 27/21/1 26/19/1
f 32/27/1 28/23/1 27/21/1
f 33/28/1 29/4/1 28/23/1
f 12/29/1 30/25/1 11/24/1
f 35/30/1 31/26/1 30/25/1
f 36/31/1 32/27/1 31/26/1
f 37/32/1 33/28/1 32/27/1
f 38/33/1 34/7/1 33/28/1
f 13/34/1 35/30/1 12/29/1
f 40/35/1 36/31/1 35/30/1
f 41/36/1 37/32/1 36/31/1
f 42/37/1 38/33/1 37/32/1
f 43/38/1 39/9/1 38/33/1
f 14/39/1 40/35/1 13/34/1
f 45/40/1 41/36/1 40/35/1
f 46/41/1 42/37/1 41/36/1
f 47/42/1 43/38/1 42/37/1
f 48/43/1 44/11/1 43/38/1
f 2/44/1 45/40/1 14/39/1
f 15/45/1 46/41/1 45/40/1
f 16/46/1 47/42/1 46/41/1
f 17/47/1 48/43/1 47/42/1
f 18/48/1 49/1/1 48/43/1
f 49/1/1 19/49/1 4/2/1
f 29/4/1 24/8/1 3/5/1
f 34/7/1 23/10/1 24/8/1
f 39/9/1 22/12/1 23/10/1
f 44/11/1 21/13/1 22/12/1
f 49/1/1 20/3/1 21/13/1
f 10/14/1 25/17/1 9/15/1
f 25/17/1 26/19/1 8/18/1
f 26/19/1 27/21/1 7/20/1
f 27/21/1 28/23/1 6/22/1
f 28/23/1 29/4/1 5/6/1
f 11/24/1 30/25/1 25/17/1
f 30/25/1 31/26/1 26/19/1
f 31/26/1 32/27/1 27/21/1
f 32/27/1 33/28/1 28/23/1
f 33/28/1 34/7/1 29/4/1
f 12/29/1 35/30/1 30/25/1
f 35/30/1 36/31/1 31/26/1
f 36/31/1 37/32/1 32/27/1
f 37/32/1 38/33/1 33/28/1
f 38/33/1 39/9/1 34/7/1
f 13/34/1 40/35/1 35/30/1
f 40/35/1 41/36/1 36/31/1
f 41/36/1 42/37/1 37/32/1
f 42/37/1 43/38/1 38/33/1
f 43/38/1 44/11/1 39/9/1
f 14/39/1 45/40/1 40/35/1
f 45/40/1 46/41/1 41/36/1
f 46/41/1 47/42/1 42/37/1
f 47/42/1 48/43/1 43/38/1
f 48/43/1 49/1/1 44/11/1
f 2/44/1 15/45/1 45/40/1
f 15/45/1 16/46/1 46/41/1
f 16/46/1 17/47/1 47/42/1
f 17/47/1 18/48/1 48/43/1
f 18/48/1 19/49/1 49/1/1
